<svg xmlns="http://www.w3.org/2000/svg" width="948" height="99" viewBox="0 0 948 99"><path fill="#0b0b15" d="M84.51 46.87L84.51 85.17Q79.17 91.56 69.41 95.09Q59.66 98.61 47.79 98.61L47.79 98.61Q35.33 98.61 25.94 93.18Q16.55 87.74 11.44 77.39Q6.33 67.04 6.20 53.06L6.20 53.06L6.20 46.54Q6.20 32.17 11.04 21.65Q15.89 11.14 25.02 5.57Q34.15 0 46.41 0L46.41 0Q63.48 0 73.10 8.14Q82.73 16.28 84.51 31.84L84.51 31.84L65.26 31.84Q63.94 23.60 59.43 19.78Q54.91 15.95 47.00 15.95L47.00 15.95Q36.91 15.95 31.64 23.53Q26.37 31.11 26.30 46.08L26.30 46.08L26.30 52.21Q26.30 67.30 32.04 75.01Q37.77 82.73 48.85 82.73L48.85 82.73Q59.99 82.73 64.73 77.98L64.73 77.98L64.73 61.44L46.74 61.44L46.74 46.87L84.51 46.87ZM161.37 97.29L154.71 77.52L120.04 77.52L113.44 97.29L92.42 97.29L128.14 1.32L146.47 1.32L182.40 97.29L161.37 97.29ZM137.31 25.58L125.38 61.50L149.37 61.50L137.31 25.58ZM249.10 40.21L249.10 55.70L211.14 55.70L211.14 81.41L255.70 81.41L255.70 97.29L191.36 97.29L191.36 1.32L255.56 1.32L255.56 17.34L211.14 17.34L211.14 40.21L249.10 40.21ZM322.87 65.32L342.64 65.32Q341.52 80.82 331.20 89.71Q320.89 98.61 304.01 98.61L304.01 98.61Q285.56 98.61 274.98 86.19Q264.40 73.76 264.40 52.08L264.40 52.08L264.40 46.21Q264.40 32.37 269.27 21.82Q274.15 11.27 283.22 5.64Q292.28 0 304.28 0L304.28 0Q320.89 0 331.04 8.90Q341.19 17.80 342.77 33.88L342.77 33.88L323.00 33.88Q322.27 24.59 317.82 20.40Q313.37 16.22 304.28 16.22L304.28 16.22Q294.39 16.22 289.48 23.30Q284.57 30.39 284.44 45.29L284.44 45.29L284.44 52.54Q284.44 68.09 289.15 75.28Q293.86 82.46 304.01 82.46L304.01 82.46Q313.18 82.46 317.69 78.28Q322.21 74.09 322.87 65.32L322.87 65.32ZM467.36 1.32L467.36 97.29L447.58 97.29L447.58 56.16L409.02 56.16L409.02 97.29L389.25 97.29L389.25 1.32L409.02 1.32L409.02 40.21L447.58 40.21L447.58 1.32L467.36 1.32ZM542.37 40.21L542.37 55.70L504.40 55.70L504.40 81.41L548.96 81.41L548.96 97.29L484.63 97.29L484.63 1.32L548.83 1.32L548.83 17.34L504.40 17.34L504.40 40.21L542.37 40.21ZM590.30 97.29L560.57 97.29L560.57 1.32L590.10 1.32Q602.75 1.32 612.74 7.02Q622.73 12.72 628.33 23.24Q633.93 33.75 633.93 47.13L633.93 47.13L633.93 51.55Q633.93 64.93 628.43 75.34Q622.92 85.76 612.91 91.49Q602.89 97.23 590.30 97.29L590.30 97.29ZM590.10 17.34L580.34 17.34L580.34 81.41L589.90 81.41Q601.50 81.41 607.63 73.83Q613.76 66.25 613.89 52.14L613.89 52.14L613.89 47.07Q613.89 32.43 607.83 24.88Q601.77 17.34 590.10 17.34L590.10 17.34ZM727.14 47.20L727.14 51.48Q727.14 65.65 722.13 76.33Q717.12 87.01 707.79 92.81Q698.47 98.61 686.40 98.61L686.40 98.61Q674.47 98.61 665.11 92.88Q655.75 87.14 650.61 76.50Q645.47 65.85 645.40 52.01L645.40 52.01L645.40 47.26Q645.40 33.09 650.51 22.31Q655.62 11.54 664.95 5.77Q674.27 0 686.27 0Q698.27 0 707.60 5.77Q716.92 11.54 722.03 22.31Q727.14 33.09 727.14 47.20L727.14 47.20ZM707.10 51.81L707.10 47.13Q707.10 32.04 701.70 24.19Q696.29 16.35 686.27 16.35L686.27 16.35Q676.32 16.35 670.91 24.09Q665.51 31.84 665.44 46.80L665.44 46.80L665.44 51.48Q665.44 66.18 670.85 74.29Q676.25 82.40 686.40 82.40L686.40 82.40Q696.36 82.40 701.70 74.59Q707.04 66.77 707.10 51.81L707.10 51.81ZM794.31 1.32L814.15 1.32L814.15 64.53Q814.15 80.29 804.30 89.45Q794.44 98.61 777.37 98.61L777.37 98.61Q760.56 98.61 750.67 89.71Q740.79 80.82 740.59 65.26L740.59 65.26L740.59 1.32L760.36 1.32L760.36 64.67Q760.36 74.09 764.88 78.41Q769.39 82.73 777.37 82.73L777.37 82.73Q794.05 82.73 794.31 65.19L794.31 65.19L794.31 1.32ZM851.40 1.32L851.40 97.29L831.62 97.29L831.62 1.32L851.40 1.32ZM947.77 1.32L947.77 97.29L927.99 97.29L889.50 34.15L889.50 97.29L869.72 97.29L869.72 1.32L889.50 1.32L928.06 64.60L928.06 1.32L947.77 1.32Z"></path></svg>