<svg xmlns="http://www.w3.org/2000/svg" width="775" height="74" viewBox="0 0 775 74"><path fill="#fff" d="M69.69 37.26L69.69 61.18Q69.69 64.52 68.42 66.13Q67.16 67.73 64.40 69.34L64.40 69.34Q62.79 70.27 60.49 71.07Q58.19 71.88 55.37 72.45Q52.55 73.03 49.51 73.37Q46.46 73.72 43.47 73.72L43.47 73.72Q35.19 73.72 28.12 71.59Q21.05 69.46 15.76 64.98Q10.46 60.49 7.48 53.59Q4.49 46.69 4.49 37.03L4.49 37.03Q4.49 27.95 7.53 20.99Q10.58 14.03 15.81 9.37Q21.05 4.72 28.12 2.36Q35.19 0 43.36 0L43.36 0Q54.05 0 60.38 3.34Q66.70 6.67 66.70 11.85L66.70 11.85Q66.70 14.49 65.32 16.50Q63.94 18.52 62.10 19.67L62.10 19.67Q59.23 17.83 54.91 16.22Q50.60 14.61 44.73 14.61L44.73 14.61Q39.91 14.61 35.94 16.16Q31.97 17.71 29.10 20.59Q26.22 23.46 24.61 27.60Q23 31.74 23 36.92L23 36.92Q23 42.55 24.55 46.75Q26.11 50.95 28.87 53.71Q31.63 56.47 35.48 57.85Q39.33 59.23 43.82 59.23L43.82 59.23Q46.58 59.23 48.82 58.65Q51.06 58.08 52.33 57.50L52.33 57.50L52.33 44.51L39.10 44.51Q38.41 43.36 37.84 41.52Q37.26 39.68 37.26 37.61L37.26 37.61Q37.26 33.93 38.98 32.20Q40.71 30.48 43.47 30.48L43.47 30.48L62.79 30.48Q66.01 30.48 67.85 32.26Q69.69 34.04 69.69 37.26L69.69 37.26ZM125.35 65.78L122.59 56.47L100.05 56.47Q98.78 60.61 97.69 64.63Q96.60 68.66 95.80 71.76L95.80 71.76Q94.30 72.22 92.69 72.57Q91.08 72.91 88.78 72.91L88.78 72.91Q83.72 72.91 81.13 71.13Q78.55 69.34 78.55 66.01L78.55 66.01Q78.55 64.40 79.00 62.91Q79.47 61.41 80.04 59.46L80.04 59.46Q80.84 56.35 82.34 51.75Q83.83 47.15 85.62 41.80Q87.40 36.46 89.35 30.82Q91.31 25.19 93.15 20.07Q94.99 14.95 96.48 10.70Q97.98 6.44 99.02 3.91L99.02 3.91Q100.74 2.88 104.36 1.95Q107.98 1.03 111.55 1.03L111.55 1.03Q116.72 1.03 120.69 2.47Q124.66 3.91 125.81 7.25L125.81 7.25Q128.00 13.34 130.53 21.39Q133.06 29.44 135.64 37.95Q138.23 46.46 140.64 54.74Q143.06 63.02 144.90 69.58L144.90 69.58Q143.63 71.07 141.16 71.99Q138.69 72.91 135.24 72.91L135.24 72.91Q130.30 72.91 128.28 71.19Q126.27 69.46 125.35 65.78L125.35 65.78ZM112.13 17.14L111.44 17.14Q109.82 22.31 107.47 28.92Q105.11 35.54 103.04 42.44L103.04 42.44L119.48 42.44Q117.53 35.19 115.52 28.58Q113.50 21.97 112.13 17.14L112.13 17.14ZM164.68 71.99L164.68 71.99Q160.31 71.99 157.72 69.40Q155.13 66.81 155.13 62.45L155.13 62.45L155.13 11.62Q155.13 7.25 157.72 4.66Q160.31 2.07 164.68 2.07L164.68 2.07L202.74 2.07Q203.43 3.22 204.01 4.95Q204.58 6.67 204.58 8.86L204.58 8.86Q204.58 12.65 202.92 14.49Q201.25 16.33 198.26 16.33L198.26 16.33L172.73 16.33L172.73 29.21L199.41 29.21Q200.10 30.36 200.67 32.09Q201.25 33.81 201.25 36.00L201.25 36.00Q201.25 39.79 199.64 41.57Q198.03 43.36 195.04 43.36L195.04 43.36L172.73 43.36L172.73 57.73L203.20 57.73Q203.89 58.88 204.47 60.72Q205.04 62.56 205.04 64.75L205.04 64.75Q205.04 68.54 203.38 70.27Q201.71 71.99 198.83 71.99L198.83 71.99L164.68 71.99ZM271.75 11.73L271.75 11.73Q271.75 14.38 270.37 16.39Q268.99 18.40 267.14 19.55L267.14 19.55Q264.15 17.60 260.65 16.10Q257.14 14.61 252.31 14.61L252.31 14.61Q243.11 14.61 237.94 20.41Q232.76 26.22 232.76 36.92L232.76 36.92Q232.76 47.96 238.22 53.53Q243.69 59.11 253.23 59.11L253.23 59.11Q258.18 59.11 261.68 57.79Q265.19 56.47 268.18 54.63L268.18 54.63Q269.90 56.01 271.00 58.13Q272.09 60.26 272.09 62.91L272.09 62.91Q272.09 65.20 270.88 67.22Q269.68 69.23 266.69 70.61L266.69 70.61Q264.38 71.76 260.48 72.74Q256.56 73.72 250.81 73.72L250.81 73.72Q243.11 73.72 236.44 71.53Q229.77 69.34 224.82 64.86Q219.88 60.38 217.06 53.42Q214.25 46.46 214.25 36.92L214.25 36.92Q214.25 27.95 217.06 21.05Q219.88 14.15 224.71 9.49Q229.54 4.83 235.98 2.42Q242.42 0 249.78 0L249.78 0Q260.25 0 266.00 3.34Q271.75 6.67 271.75 11.73ZM324.88 71.65L324.88 71.65Q323.61 71.99 321.31 72.28Q319.01 72.57 316.48 72.57L316.48 72.57Q311.07 72.57 308.95 70.73Q306.82 68.89 306.82 64.06L306.82 64.06L306.82 1.84Q308.08 1.61 310.44 1.27Q312.80 0.92 315.10 0.92L315.10 0.92Q320.27 0.92 322.57 2.64Q324.88 4.37 324.88 9.43L324.88 9.43L324.88 29.67L349.60 29.67L349.60 1.84Q350.87 1.61 353.22 1.27Q355.58 0.92 358.00 0.92L358.00 0.92Q363.05 0.92 365.36 2.76Q367.65 4.60 367.65 9.66L367.65 9.66L367.65 71.65Q366.39 71.99 364.09 72.28Q361.79 72.57 359.26 72.57L359.26 72.57Q353.85 72.57 351.73 70.73Q349.60 68.89 349.60 64.06L349.60 64.06L349.60 43.93L324.88 43.93L324.88 71.65ZM393.30 71.99L393.30 71.99Q388.93 71.99 386.34 69.40Q383.75 66.81 383.75 62.45L383.75 62.45L383.75 11.62Q383.75 7.25 386.34 4.66Q388.93 2.07 393.30 2.07L393.30 2.07L431.37 2.07Q432.06 3.22 432.63 4.95Q433.20 6.67 433.20 8.86L433.20 8.86Q433.20 12.65 431.54 14.49Q429.87 16.33 426.88 16.33L426.88 16.33L401.35 16.33L401.35 29.21L428.03 29.21Q428.72 30.36 429.29 32.09Q429.87 33.81 429.87 36.00L429.87 36.00Q429.87 39.79 428.26 41.57Q426.65 43.36 423.66 43.36L423.66 43.36L401.35 43.36L401.35 57.73L431.82 57.73Q432.51 58.88 433.09 60.72Q433.66 62.56 433.66 64.75L433.66 64.75Q433.66 68.54 432.00 70.27Q430.33 71.99 427.45 71.99L427.45 71.99L393.30 71.99ZM491.63 36.92L491.63 36.92Q491.63 25.76 486.16 20.30Q480.70 14.84 471.96 14.84L471.96 14.84Q469.89 14.84 468.05 14.95Q466.21 15.07 464.37 15.41L464.37 15.41L464.37 58.19Q465.87 58.54 467.99 58.71Q470.12 58.88 472.07 58.88L472.07 58.88Q481.05 58.88 486.33 53.42Q491.63 47.96 491.63 36.92ZM510.25 36.69L510.25 36.69Q510.25 45.89 507.50 52.79Q504.74 59.69 499.73 64.29Q494.73 68.89 487.66 71.19Q480.58 73.48 471.96 73.48L471.96 73.48Q470.00 73.48 467.53 73.37Q465.06 73.26 462.47 72.97Q459.88 72.68 457.24 72.16Q454.59 71.65 452.41 70.84L452.41 70.84Q446.43 68.66 446.43 63.02L446.43 63.02L446.43 8.28Q446.43 5.98 447.64 4.72Q448.84 3.45 451.14 2.64L451.14 2.64Q455.86 1.15 461.15 0.69Q466.44 0.23 470.81 0.23L470.81 0.23Q479.67 0.23 486.91 2.42Q494.15 4.60 499.33 9.14Q504.50 13.69 507.38 20.53Q510.25 27.37 510.25 36.69ZM590.75 36.80L590.75 36.80Q590.75 45.77 588.05 52.67Q585.35 59.57 580.52 64.23Q575.69 68.89 569.13 71.30Q562.58 73.72 554.88 73.72L554.88 73.72Q547.17 73.72 540.62 71.30Q534.06 68.89 529.29 64.23Q524.51 59.57 521.81 52.67Q519.11 45.77 519.11 36.80L519.11 36.80Q519.11 27.83 521.87 20.99Q524.63 14.15 529.46 9.49Q534.29 4.83 540.79 2.42Q547.28 0 554.88 0L554.88 0Q562.47 0 569.02 2.42Q575.58 4.83 580.40 9.49Q585.24 14.15 588.00 20.99Q590.75 27.83 590.75 36.80ZM572.13 36.80L572.13 36.80Q572.13 25.76 567.47 20.18Q562.81 14.61 554.88 14.61L554.88 14.61Q547.05 14.61 542.34 20.18Q537.63 25.76 537.63 36.80L537.63 36.80Q537.63 47.96 542.28 53.53Q546.94 59.11 554.88 59.11L554.88 59.11Q562.81 59.11 567.47 53.53Q572.13 47.96 572.13 36.80ZM633.08 73.72L633.08 73.72Q625.95 73.72 620.37 71.76Q614.79 69.81 610.88 66.24Q606.97 62.68 604.90 57.67Q602.83 52.67 602.83 46.46L602.83 46.46L602.83 1.84Q604.10 1.61 606.45 1.27Q608.81 0.92 611.23 0.92L611.23 0.92Q616.40 0.92 618.64 2.64Q620.88 4.37 620.88 9.43L620.88 9.43L620.88 46.12Q620.88 52.33 624.28 55.72Q627.67 59.11 633.08 59.11L633.08 59.11Q638.60 59.11 641.99 55.72Q645.38 52.33 645.38 46.12L645.38 46.12L645.38 1.84Q646.64 1.61 649.00 1.27Q651.36 0.92 653.77 0.92L653.77 0.92Q658.95 0.92 661.19 2.64Q663.43 4.37 663.43 9.43L663.43 9.43L663.43 46.46Q663.43 52.67 661.37 57.67Q659.29 62.68 655.38 66.24Q651.48 69.81 645.84 71.76Q640.21 73.72 633.08 73.72ZM688.85 72.57L688.85 72.57Q683.44 72.57 681.32 70.73Q679.19 68.89 679.19 64.06L679.19 64.06L679.19 1.84Q680.46 1.61 682.81 1.27Q685.17 0.92 687.59 0.92L687.59 0.92Q692.76 0.92 695.00 2.64Q697.25 4.37 697.25 9.43L697.25 9.43L697.25 71.65Q695.98 71.99 693.68 72.28Q691.38 72.57 688.85 72.57ZM774.98 69.58L774.98 69.58Q773.38 70.95 770.62 71.82Q767.86 72.68 764.06 72.68L764.06 72.68Q760.15 72.68 756.70 71.42Q753.25 70.15 750.95 65.67L750.95 65.67L737.61 39.91Q735.65 36.23 733.99 32.55Q732.32 28.87 730.71 24.84L730.71 24.84L729.90 25.07Q730.48 31.97 730.59 38.24Q730.71 44.51 730.71 50.37L730.71 50.37L730.71 71.76Q729.56 71.99 727.32 72.28Q725.07 72.57 722.66 72.57L722.66 72.57Q717.49 72.57 715.41 70.78Q713.34 69 713.34 64.40L713.34 64.40L713.34 5.17Q714.72 3.22 717.77 2.13Q720.82 1.03 724.27 1.03L724.27 1.03Q728.29 1.03 731.69 2.30Q735.08 3.56 737.38 7.94L737.38 7.94L750.83 33.81Q752.79 37.49 754.46 41.17Q756.13 44.85 757.74 48.88L757.74 48.88L758.19 48.76Q757.62 41.06 757.56 34.16Q757.50 27.26 757.50 20.93L757.50 20.93L757.50 1.84Q758.65 1.61 760.90 1.27Q763.14 0.92 765.67 0.92L765.67 0.92Q770.84 0.92 772.91 2.70Q774.98 4.48 774.98 9.09L774.98 9.09L774.98 69.58Z"></path></svg>