<svg xmlns="http://www.w3.org/2000/svg" width="748" height="120" viewBox="0 0 748 120"><path fill="#fff" d="M4.21 60.97L4.21 60.24Q4.21 45.04 11.44 35.77Q18.68 26.49 30.94 26.49L30.94 26.49Q41.81 26.49 47.85 33.94L47.85 33.94L48.58 27.71L64.58 27.71L64.58 91.55Q64.58 100.22 60.64 106.63Q56.70 113.04 49.56 116.39Q42.42 119.75 32.84 119.75L32.84 119.75Q25.57 119.75 18.68 116.85Q11.78 113.95 8.24 109.38L8.24 109.38L16.05 98.63Q22.64 106.02 32.04 106.02L32.04 106.02Q39.06 106.02 42.97 102.26Q46.88 98.51 46.88 91.61L46.88 91.61L46.88 88.07Q40.77 94.97 30.82 94.97L30.82 94.97Q18.92 94.97 11.57 85.66Q4.21 76.35 4.21 60.97L4.21 60.97ZM21.85 61.52L21.85 61.52Q21.85 70.50 25.45 75.59Q29.05 80.69 35.34 80.69L35.34 80.69Q43.40 80.69 46.88 74.65L46.88 74.65L46.88 46.88Q43.33 40.83 35.46 40.83L35.46 40.83Q29.11 40.83 25.48 46.02Q21.85 51.21 21.85 61.52ZM134.22 93.75L116.39 93.75Q115.17 91.37 114.62 87.83L114.62 87.83Q108.22 94.97 97.96 94.97L97.96 94.97Q88.26 94.97 81.88 89.36Q75.50 83.74 75.50 75.20L75.50 75.20Q75.50 64.70 83.28 59.08Q91.06 53.47 105.77 53.41L105.77 53.41L113.89 53.41L113.89 49.62Q113.89 45.04 111.54 42.30Q109.19 39.55 104.13 39.55L104.13 39.55Q99.67 39.55 97.14 41.69Q94.60 43.82 94.60 47.55L94.60 47.55L76.97 47.55Q76.97 41.81 80.51 36.93Q84.05 32.04 90.52 29.27Q96.98 26.49 105.04 26.49L105.04 26.49Q117.25 26.49 124.42 32.62Q131.59 38.76 131.59 49.87L131.59 49.87L131.59 78.49Q131.65 87.89 134.22 92.71L134.22 92.71L134.22 93.75ZM101.81 81.48L101.81 81.48Q105.71 81.48 109.01 79.74Q112.30 78.00 113.89 75.07L113.89 75.07L113.89 63.72L107.30 63.72Q94.06 63.72 93.20 72.88L93.20 72.88L93.14 73.91Q93.14 77.21 95.46 79.35Q97.78 81.48 101.81 81.48ZM175.54 94.97L175.54 94.97Q161.01 94.97 151.89 86.06Q142.76 77.15 142.76 62.32L142.76 62.32L142.76 60.61Q142.76 50.66 146.61 42.82Q150.45 34.97 157.50 30.73Q164.55 26.49 173.58 26.49L173.58 26.49Q187.13 26.49 194.92 35.03Q202.70 43.58 202.70 59.27L202.70 59.27L202.70 66.47L160.64 66.47Q161.50 72.94 165.80 76.84Q170.10 80.75 176.70 80.75L176.70 80.75Q186.89 80.75 192.63 73.36L192.63 73.36L201.29 83.07Q197.33 88.68 190.55 91.83Q183.78 94.97 175.54 94.97ZM173.52 40.77L173.52 40.77Q168.27 40.77 165.01 44.31Q161.74 47.85 160.83 54.44L160.83 54.44L185.36 54.44L185.36 53.04Q185.24 47.18 182.19 43.98Q179.14 40.77 173.52 40.77ZM240.17 80.75L240.17 80.75Q245.06 80.75 248.11 78.06Q251.16 75.38 251.28 70.92L251.28 70.92L267.82 70.92Q267.76 77.64 264.16 83.22Q260.56 88.81 254.30 91.89Q248.05 94.97 240.48 94.97L240.48 94.97Q226.32 94.97 218.14 85.97Q209.96 76.97 209.96 61.10L209.96 61.10L209.96 59.94Q209.96 44.68 218.08 35.58Q226.20 26.49 240.36 26.49L240.36 26.49Q252.75 26.49 260.22 33.54Q267.70 40.59 267.82 52.31L267.82 52.31L251.28 52.31Q251.16 47.18 248.11 43.98Q245.06 40.77 240.05 40.77L240.05 40.77Q233.89 40.77 230.74 45.26Q227.60 49.74 227.60 59.81L227.60 59.81L227.60 61.65Q227.60 71.84 230.71 76.29Q233.83 80.75 240.17 80.75ZM326.23 0L326.23 34.91Q333.25 26.49 343.87 26.49L343.87 26.49Q365.36 26.49 365.66 51.45L365.66 51.45L365.66 93.75L348.02 93.75L348.02 51.94Q348.02 46.26 345.58 43.55Q343.14 40.83 337.46 40.83L337.46 40.83Q329.71 40.83 326.23 46.81L326.23 46.81L326.23 93.75L308.59 93.75L308.59 0L326.23 0ZM409.36 94.97L409.36 94.97Q394.84 94.97 385.71 86.06Q376.59 77.15 376.59 62.32L376.59 62.32L376.59 60.61Q376.59 50.66 380.43 42.82Q384.28 34.97 391.33 30.73Q398.38 26.49 407.41 26.49L407.41 26.49Q420.96 26.49 428.74 35.03Q436.52 43.58 436.52 59.27L436.52 59.27L436.52 66.47L394.47 66.47Q395.32 72.94 399.63 76.84Q403.93 80.75 410.52 80.75L410.52 80.75Q420.72 80.75 426.45 73.36L426.45 73.36L435.12 83.07Q431.15 88.68 424.38 91.83Q417.60 94.97 409.36 94.97ZM407.35 40.77L407.35 40.77Q402.10 40.77 398.83 44.31Q395.57 47.85 394.65 54.44L394.65 54.44L419.19 54.44L419.19 53.04Q419.07 47.18 416.02 43.98Q412.96 40.77 407.35 40.77ZM443.79 60.24L443.79 60.24Q443.79 44.80 450.71 35.64Q457.64 26.49 469.67 26.49L469.67 26.49Q479.31 26.49 485.60 33.69L485.60 33.69L485.60 0L503.30 0L503.30 93.75L487.37 93.75L486.51 86.73Q479.92 94.97 469.54 94.97L469.54 94.97Q457.89 94.97 450.84 85.78Q443.79 76.60 443.79 60.24ZM461.43 61.52L461.43 61.52Q461.43 70.80 464.66 75.74Q467.90 80.69 474.06 80.69L474.06 80.69Q482.24 80.69 485.60 73.79L485.60 73.79L485.60 47.73Q482.30 40.83 474.18 40.83L474.18 40.83Q461.43 40.83 461.43 61.52ZM514.22 60.91L514.22 60.12Q514.22 50.29 518.01 42.60Q521.79 34.91 528.90 30.70Q536.01 26.49 545.41 26.49L545.41 26.49Q558.78 26.49 567.23 34.67Q575.68 42.85 576.66 56.88L576.66 56.88L576.78 61.40Q576.78 76.60 568.30 85.78Q559.81 94.97 545.53 94.97Q531.25 94.97 522.74 85.82Q514.22 76.66 514.22 60.91L514.22 60.91ZM531.86 61.40L531.86 61.40Q531.86 70.80 535.40 75.78Q538.94 80.75 545.53 80.75L545.53 80.75Q551.94 80.75 555.54 75.84Q559.14 70.92 559.14 60.12L559.14 60.12Q559.14 50.90 555.54 45.84Q551.94 40.77 545.41 40.77L545.41 40.77Q538.94 40.77 535.40 45.81Q531.86 50.84 531.86 61.40ZM627.69 93.75L627.20 87.04Q620.67 94.97 609.13 94.97L609.13 94.97Q598.51 94.97 592.93 88.87Q587.34 82.76 587.22 70.98L587.22 70.98L587.22 27.71L604.86 27.71L604.86 70.37Q604.86 80.69 614.26 80.69L614.26 80.69Q623.23 80.69 626.59 74.46L626.59 74.46L626.59 27.71L644.29 27.71L644.29 93.75L627.69 93.75ZM676.21 27.71L676.21 93.75L658.51 93.75L658.51 27.71L676.21 27.71ZM657.47 10.62L657.47 10.62Q657.47 6.65 660.13 4.09Q662.78 1.53 667.36 1.53L667.36 1.53Q671.88 1.53 674.56 4.09Q677.25 6.65 677.25 10.62L677.25 10.62Q677.25 14.65 674.53 17.21Q671.81 19.78 667.36 19.78Q662.90 19.78 660.19 17.21Q657.47 14.65 657.47 10.62ZM690.37 27.71L706.97 27.71L707.52 35.34Q714.60 26.49 726.50 26.49L726.50 26.49Q737.00 26.49 742.13 32.65Q747.25 38.82 747.38 51.09L747.38 51.09L747.38 93.75L729.74 93.75L729.74 51.51Q729.74 45.90 727.29 43.37Q724.85 40.83 719.18 40.83L719.18 40.83Q711.73 40.83 708.01 47.18L708.01 47.18L708.01 93.75L690.37 93.75L690.37 27.71Z"></path></svg>